<?xml version="1.0" encoding="UTF-8" standalone="no"?>
<svg
   xmlns:dc="http://purl.org/dc/elements/1.1/"
   xmlns:cc="http://creativecommons.org/ns#"
   xmlns:rdf="http://www.w3.org/1999/02/22-rdf-syntax-ns#"
   xmlns:svg="http://www.w3.org/2000/svg"
   xmlns="http://www.w3.org/2000/svg"
   viewBox="0 0 600 543.10669"
   height="543.10669"
   width="600"
   xml:space="preserve"
   id="svg2"
   version="1.1"><metadata
     id="metadata8"><rdf:RDF><cc:Work
         rdf:about=""><dc:format>image/svg+xml</dc:format><dc:type
           rdf:resource="http://purl.org/dc/dcmitype/StillImage" /></cc:Work></rdf:RDF></metadata><defs
     id="defs6" /><g
     transform="matrix(1.3333333,0,0,-1.3333333,0,543.10667)"
     id="g10"><g
       transform="scale(0.1)"
       id="g12"><path
         id="path14"
         style="fill:#100f0d;fill-opacity:1;fill-rule:nonzero;stroke:none"
         d="m 797.27,3511.43 c -34.829,0 -63.008,28.2 -63.008,63.02 v 297.57 l -38.399,-33.42 c -26.218,-22.71 -65.957,-20.12 -88.91,6.22 -22.836,26.28 -20.066,66.08 6.211,88.91 l 142.754,124.05 c 18.648,16.18 45.035,20.06 67.5,9.78 22.457,-10.27 36.855,-32.67 36.855,-57.35 v -435.76 c 0,-34.82 -28.179,-63.02 -63.003,-63.02" /><path
         id="path16"
         style="fill:#100f0d;fill-opacity:1;fill-rule:nonzero;stroke:none"
         d="M 940.023,3511.43 H 654.512 c -34.824,0 -63.004,28.2 -63.004,63.02 0,34.83 28.18,63.01 63.004,63.01 h 285.511 c 34.832,0 63.007,-28.18 63.007,-63.01 0,-34.82 -28.175,-63.02 -63.007,-63.02" /><path
         id="path18"
         style="fill:#100f0d;fill-opacity:1;fill-rule:nonzero;stroke:none"
         d="m 1962.92,3511.43 c -34.82,0 -63,28.2 -63,63.02 v 297.57 l -38.4,-33.42 c -26.21,-22.71 -65.96,-20.12 -88.91,6.22 -22.83,26.28 -20.06,66.08 6.22,88.91 l 142.74,124.05 c 18.65,16.18 45.1,20.06 67.5,9.78 22.47,-10.27 36.87,-32.67 36.87,-57.35 v -435.76 c 0,-34.82 -28.19,-63.02 -63.02,-63.02" /><path
         id="path20"
         style="fill:#100f0d;fill-opacity:1;fill-rule:nonzero;stroke:none"
         d="m 2105.68,3511.43 h -285.5 c -34.83,0 -63.02,28.2 -63.02,63.02 0,34.83 28.19,63.01 63.02,63.01 h 285.5 c 34.82,0 63,-28.18 63,-63.01 0,-34.82 -28.18,-63.02 -63,-63.02" /><path
         id="path22"
         style="fill:#100f0d;fill-opacity:1;fill-rule:nonzero;stroke:none"
         d="m 2463.85,3947.21 c -3.56,0 -6.52,-2.95 -6.52,-6.53 v -296.7 c 0,-3.57 2.96,-6.52 6.52,-6.52 h 191.68 c 3.63,0 6.58,2.95 6.58,6.52 v 296.7 c 0,3.58 -2.95,6.53 -6.58,6.53 z m 191.68,-435.78 h -191.68 c -73.09,0 -132.54,59.45 -132.54,132.55 v 296.7 c 0,73.1 59.45,132.54 132.54,132.54 h 191.68 c 73.1,0 132.6,-59.44 132.6,-132.54 v -296.7 c 0,-73.1 -59.5,-132.55 -132.6,-132.55" /><path
         id="path24"
         style="fill:#100f0d;fill-opacity:1;fill-rule:nonzero;stroke:none"
         d="m 3128.58,3511.43 c -34.82,0 -63,28.2 -63,63.02 v 297.57 l -38.4,-33.42 c -26.2,-22.71 -65.96,-20.12 -88.91,6.22 -22.83,26.28 -20.07,66.08 6.21,88.91 l 142.76,124.05 c 18.7,16.18 45.05,20.06 67.5,9.78 22.45,-10.27 36.85,-32.67 36.85,-57.35 v -435.76 c 0,-34.82 -28.18,-63.02 -63.01,-63.02" /><path
         id="path26"
         style="fill:#100f0d;fill-opacity:1;fill-rule:nonzero;stroke:none"
         d="m 3271.34,3511.43 h -285.51 c -34.82,0 -63.01,28.2 -63.01,63.02 0,34.83 28.19,63.01 63.01,63.01 h 285.51 c 34.83,0 63.01,-28.18 63.01,-63.01 0,-34.82 -28.18,-63.02 -63.01,-63.02" /><path
         id="path28"
         style="fill:#100f0d;fill-opacity:1;fill-rule:nonzero;stroke:none"
         d="m 3629.52,3947.21 c -3.57,0 -6.53,-2.95 -6.53,-6.53 v -296.7 c 0,-3.57 2.96,-6.52 6.53,-6.52 h 191.66 c 3.63,0 6.59,2.95 6.59,6.52 v 296.7 c 0,3.58 -2.96,6.53 -6.59,6.53 z m 191.66,-435.78 h -191.66 c -73.1,0 -132.54,59.45 -132.54,132.55 v 296.7 c 0,73.1 59.44,132.54 132.54,132.54 h 191.66 c 73.11,0 132.61,-59.44 132.61,-132.54 v -296.7 c 0,-73.1 -59.5,-132.55 -132.61,-132.55" /><path
         id="path30"
         style="fill:#100f0d;fill-opacity:1;fill-rule:nonzero;stroke:none"
         d="m 132.535,3244.95 c -3.558,0 -6.523,-2.97 -6.523,-6.59 v -296.64 c 0,-3.63 2.965,-6.59 6.523,-6.59 h 191.68 c 3.629,0 6.582,2.96 6.582,6.59 v 296.64 c 0,3.62 -2.953,6.59 -6.582,6.59 z m 191.68,-435.84 H 132.535 C 59.4336,2809.11 0,2868.62 0,2941.72 v 296.64 c 0,73.11 59.4336,132.61 132.535,132.61 h 191.68 c 73.09,0 132.594,-59.5 132.594,-132.61 v -296.64 c 0,-73.1 -59.504,-132.61 -132.594,-132.61" /><path
         id="path32"
         style="fill:#100f0d;fill-opacity:1;fill-rule:nonzero;stroke:none"
         d="m 797.27,2809.11 c -34.829,0 -63.008,28.18 -63.008,63.01 v 297.64 l -38.399,-33.42 c -26.218,-22.7 -65.957,-20.06 -88.91,6.21 -22.836,26.28 -20.066,66.09 6.211,88.92 l 142.754,124.05 c 18.648,16.24 45.035,20 67.5,9.78 22.457,-10.28 36.855,-32.68 36.855,-57.35 v -435.83 c 0,-34.83 -28.179,-63.01 -63.003,-63.01" /><path
         id="path34"
         style="fill:#100f0d;fill-opacity:1;fill-rule:nonzero;stroke:none"
         d="M 940.023,2809.11 H 654.512 c -34.824,0 -63.004,28.18 -63.004,63.01 0,34.83 28.18,63.01 63.004,63.01 h 285.511 c 34.832,0 63.007,-28.18 63.007,-63.01 0,-34.83 -28.175,-63.01 -63.007,-63.01" /><path
         id="path36"
         style="fill:#100f0d;fill-opacity:1;fill-rule:nonzero;stroke:none"
         d="m 1298.2,3244.95 c -3.57,0 -6.53,-2.97 -6.53,-6.59 v -296.64 c 0,-3.63 2.96,-6.59 6.53,-6.59 h 191.67 c 3.63,0 6.59,2.96 6.59,6.59 v 296.64 c 0,3.62 -2.96,6.59 -6.59,6.59 z m 191.67,-435.84 H 1298.2 c -73.1,0 -132.54,59.51 -132.54,132.61 v 296.64 c 0,73.11 59.44,132.61 132.54,132.61 h 191.67 c 73.1,0 132.6,-59.5 132.6,-132.61 v -296.64 c 0,-73.1 -59.5,-132.61 -132.6,-132.61" /><path
         id="path38"
         style="fill:#100f0d;fill-opacity:1;fill-rule:nonzero;stroke:none"
         d="m 1962.92,2809.11 c -34.82,0 -63,28.18 -63,63.01 v 297.64 l -38.4,-33.42 c -26.21,-22.7 -65.96,-20.06 -88.91,6.21 -22.83,26.28 -20.06,66.09 6.22,88.92 l 142.74,124.05 c 18.65,16.24 45.1,20 67.5,9.78 22.47,-10.28 36.87,-32.68 36.87,-57.35 v -435.83 c 0,-34.83 -28.19,-63.01 -63.02,-63.01" /><path
         id="path40"
         style="fill:#100f0d;fill-opacity:1;fill-rule:nonzero;stroke:none"
         d="m 2105.68,2809.11 h -285.5 c -34.83,0 -63.02,28.18 -63.02,63.01 0,34.83 28.19,63.01 63.02,63.01 h 285.5 c 34.82,0 63,-28.18 63,-63.01 0,-34.83 -28.18,-63.01 -63,-63.01" /><path
         id="path42"
         style="fill:#100f0d;fill-opacity:1;fill-rule:nonzero;stroke:none"
         d="m 4294.24,2809.11 c -34.83,0 -63.01,28.18 -63.01,63.01 v 297.64 l -38.4,-33.42 c -26.2,-22.7 -65.95,-20.06 -88.9,6.21 -22.84,26.28 -20.06,66.09 6.22,88.92 l 142.75,124.05 c 18.63,16.24 45.1,20 67.49,9.78 22.46,-10.28 36.87,-32.68 36.87,-57.35 v -435.83 c 0,-34.83 -28.2,-63.01 -63.02,-63.01" /><path
         id="path44"
         style="fill:#100f0d;fill-opacity:1;fill-rule:nonzero;stroke:none"
         d="m 4436.99,2809.11 h -285.5 c -34.82,0 -63.01,28.18 -63.01,63.01 0,34.83 28.19,63.01 63.01,63.01 h 285.5 c 34.83,0 63.01,-28.18 63.01,-63.01 0,-34.83 -28.18,-63.01 -63.01,-63.01" /><path
         id="path46"
         style="fill:#100f0d;fill-opacity:1;fill-rule:nonzero;stroke:none"
         d="m 132.535,2542.68 c -3.558,0 -6.523,-2.96 -6.523,-6.58 v -296.64 c 0,-3.64 2.965,-6.59 6.523,-6.59 h 191.68 c 3.629,0 6.582,2.95 6.582,6.59 v 296.64 c 0,3.62 -2.953,6.58 -6.582,6.58 z m 191.68,-435.83 H 132.535 C 59.4336,2106.85 0,2166.35 0,2239.46 v 296.64 c 0,73.1 59.4336,132.6 132.535,132.6 h 191.68 c 73.09,0 132.594,-59.5 132.594,-132.6 v -296.64 c 0,-73.11 -59.504,-132.61 -132.594,-132.61" /><path
         id="path48"
         style="fill:#100f0d;fill-opacity:1;fill-rule:nonzero;stroke:none"
         d="m 1298.2,2542.68 c -3.57,0 -6.53,-2.96 -6.53,-6.58 v -296.64 c 0,-3.64 2.96,-6.59 6.53,-6.59 h 191.67 c 3.63,0 6.59,2.95 6.59,6.59 v 296.64 c 0,3.62 -2.96,6.58 -6.59,6.58 z m 191.67,-435.83 H 1298.2 c -73.1,0 -132.54,59.5 -132.54,132.61 v 296.64 c 0,73.1 59.44,132.6 132.54,132.6 h 191.67 c 73.1,0 132.6,-59.5 132.6,-132.6 v -296.64 c 0,-73.11 -59.5,-132.61 -132.6,-132.61" /><path
         id="path50"
         style="fill:#100f0d;fill-opacity:1;fill-rule:nonzero;stroke:none"
         d="m 797.27,1404.58 c -34.829,0 -63.008,28.2 -63.008,63.02 v 297.57 l -38.399,-33.42 c -26.218,-22.7 -65.957,-20.13 -88.91,6.22 -22.836,26.27 -20.066,66.09 6.211,88.91 l 142.754,124.05 c 18.648,16.18 45.035,20 67.5,9.79 22.457,-10.29 36.855,-32.68 36.855,-57.36 V 1467.6 c 0,-34.82 -28.179,-63.02 -63.003,-63.02" /><path
         id="path52"
         style="fill:#100f0d;fill-opacity:1;fill-rule:nonzero;stroke:none"
         d="M 940.023,1404.58 H 654.512 c -34.824,0 -63.004,28.2 -63.004,63.02 0,34.82 28.18,63.01 63.004,63.01 h 285.511 c 34.832,0 63.007,-28.19 63.007,-63.01 0,-34.82 -28.175,-63.02 -63.007,-63.02" /><path
         id="path54"
         style="fill:#100f0d;fill-opacity:1;fill-rule:nonzero;stroke:none"
         d="m 1298.2,1840.35 c -3.57,0 -6.53,-2.94 -6.53,-6.52 v -296.7 c 0,-3.57 2.96,-6.52 6.53,-6.52 h 191.67 c 3.63,0 6.59,2.95 6.59,6.52 v 296.7 c 0,3.58 -2.96,6.52 -6.59,6.52 z m 191.67,-435.77 H 1298.2 c -73.1,0 -132.54,59.45 -132.54,132.55 v 296.7 c 0,73.11 59.44,132.55 132.54,132.55 h 191.67 c 73.1,0 132.6,-59.44 132.6,-132.55 v -296.7 c 0,-73.1 -59.5,-132.55 -132.6,-132.55" /><path
         id="path56"
         style="fill:#100f0d;fill-opacity:1;fill-rule:nonzero;stroke:none"
         d="m 132.535,1138.09 c -3.558,0 -6.523,-2.95 -6.523,-6.58 V 834.871 c 0,-3.629 2.965,-6.59 6.523,-6.59 h 191.68 c 3.629,0 6.582,2.961 6.582,6.59 v 296.639 c 0,3.63 -2.953,6.58 -6.582,6.58 z M 324.215,702.262 H 132.535 C 59.4336,702.262 0,761.762 0,834.871 v 296.639 c 0,73.1 59.4336,132.6 132.535,132.6 h 191.68 c 73.09,0 132.594,-59.5 132.594,-132.6 V 834.871 c 0,-73.109 -59.504,-132.609 -132.594,-132.609" /><path
         id="path58"
         style="fill:#100f0d;fill-opacity:1;fill-rule:nonzero;stroke:none"
         d="m 1298.2,1138.09 c -3.57,0 -6.53,-2.95 -6.53,-6.58 V 834.871 c 0,-3.629 2.96,-6.59 6.53,-6.59 h 191.67 c 3.63,0 6.59,2.961 6.59,6.59 v 296.639 c 0,3.63 -2.96,6.58 -6.59,6.58 z M 1489.87,702.262 H 1298.2 c -73.1,0 -132.54,59.5 -132.54,132.609 v 296.639 c 0,73.1 59.44,132.6 132.54,132.6 h 191.67 c 73.1,0 132.6,-59.5 132.6,-132.6 V 834.871 c 0,-73.109 -59.5,-132.609 -132.6,-132.609" /><path
         id="path60"
         style="fill:#100f0d;fill-opacity:1;fill-rule:nonzero;stroke:none"
         d="m 1962.92,702.262 c -34.82,0 -63,28.179 -63,63.008 v 297.63 l -38.4,-33.41 c -26.21,-22.71 -65.96,-20.11 -88.91,6.22 -22.83,26.28 -20.06,66.08 6.22,88.9 l 142.74,124.05 c 18.65,16.19 45.1,20 67.5,9.79 22.47,-10.28 36.87,-32.68 36.87,-57.34 V 765.27 c 0,-34.829 -28.19,-63.008 -63.02,-63.008" /><path
         id="path62"
         style="fill:#100f0d;fill-opacity:1;fill-rule:nonzero;stroke:none"
         d="m 2105.68,702.262 h -285.5 c -34.83,0 -63.02,28.179 -63.02,63.008 0,34.832 28.19,63.011 63.02,63.011 h 285.5 c 34.82,0 63,-28.179 63,-63.011 0,-34.829 -28.18,-63.008 -63,-63.008" /><path
         id="path64"
         style="fill:#100f0d;fill-opacity:1;fill-rule:nonzero;stroke:none"
         d="m 4294.24,702.262 c -34.83,0 -63.01,28.179 -63.01,63.008 v 297.63 l -38.4,-33.41 c -26.2,-22.71 -65.95,-20.11 -88.9,6.22 -22.84,26.28 -20.06,66.08 6.22,88.9 l 142.75,124.05 c 18.63,16.19 45.1,20 67.49,9.79 22.46,-10.28 36.87,-32.68 36.87,-57.34 V 765.27 c 0,-34.829 -28.2,-63.008 -63.02,-63.008" /><path
         id="path66"
         style="fill:#100f0d;fill-opacity:1;fill-rule:nonzero;stroke:none"
         d="m 4436.99,702.262 h -285.5 c -34.82,0 -63.01,28.179 -63.01,63.008 0,34.832 28.19,63.011 63.01,63.011 h 285.5 c 34.83,0 63.01,-28.179 63.01,-63.011 0,-34.829 -28.18,-63.008 -63.01,-63.008" /><path
         id="path68"
         style="fill:#100f0d;fill-opacity:1;fill-rule:nonzero;stroke:none"
         d="m 132.535,435.832 c -3.558,0 -6.523,-2.961 -6.523,-6.594 V 132.602 c 0,-3.622 2.965,-6.582 6.523,-6.582 h 191.68 c 3.629,0 6.582,2.96 6.582,6.582 v 296.636 c 0,3.633 -2.953,6.594 -6.582,6.594 z M 324.215,-0.0078125 H 132.535 C 59.4336,-0.0078125 0,59.5 0,132.602 v 296.636 c 0,73.114 59.4336,132.614 132.535,132.614 h 191.68 c 73.09,0 132.594,-59.5 132.594,-132.614 V 132.602 C 456.809,59.5 397.305,-0.0078125 324.215,-0.0078125" /><path
         id="path70"
         style="fill:#100f0d;fill-opacity:1;fill-rule:nonzero;stroke:none"
         d="m 797.27,-0.0078125 c -34.829,0 -63.008,28.1992125 -63.008,63.0195125 V 360.641 L 695.863,327.23 c -26.218,-22.71 -65.957,-20.07 -88.91,6.211 -22.836,26.278 -20.066,66.079 6.211,88.93 l 142.754,124.027 c 18.648,16.184 45.035,20 67.5,9.793 22.457,-10.281 36.855,-32.671 36.855,-57.351 V 63.0117 c 0,-34.8203 -28.179,-63.0195125 -63.003,-63.0195125" /><path
         id="path72"
         style="fill:#100f0d;fill-opacity:1;fill-rule:nonzero;stroke:none"
         d="M 940.023,-0.0078125 H 654.512 c -34.824,0 -63.004,28.1992125 -63.004,63.0195125 0,34.8281 28.18,63.0083 63.004,63.0083 h 285.511 c 34.832,0 63.007,-28.1802 63.007,-63.0083 0,-34.8203 -28.175,-63.0195125 -63.007,-63.0195125" /><path
         id="path74"
         style="fill:#100f0d;fill-opacity:1;fill-rule:nonzero;stroke:none"
         d="m 1962.92,-0.0078125 c -34.82,0 -63,28.1992125 -63,63.0195125 V 360.641 l -38.4,-33.411 c -26.21,-22.71 -65.96,-20.07 -88.91,6.211 -22.83,26.278 -20.06,66.079 6.22,88.93 l 142.74,124.027 c 18.65,16.184 45.1,20 67.5,9.793 22.47,-10.281 36.87,-32.671 36.87,-57.351 V 63.0117 c 0,-34.8203 -28.19,-63.0195125 -63.02,-63.0195125" /><path
         id="path76"
         style="fill:#100f0d;fill-opacity:1;fill-rule:nonzero;stroke:none"
         d="m 2105.68,-0.0078125 h -285.5 c -34.83,0 -63.02,28.1992125 -63.02,63.0195125 0,34.8281 28.19,63.0083 63.02,63.0083 h 285.5 c 34.82,0 63,-28.1802 63,-63.0083 0,-34.8203 -28.18,-63.0195125 -63,-63.0195125" /><path
         id="path78"
         style="fill:#100f0d;fill-opacity:1;fill-rule:nonzero;stroke:none"
         d="m 3128.58,-0.0078125 c -34.82,0 -63,28.1992125 -63,63.0195125 V 360.641 l -38.4,-33.411 c -26.2,-22.71 -65.96,-20.07 -88.91,6.211 -22.83,26.278 -20.07,66.079 6.21,88.93 l 142.76,124.027 c 18.7,16.184 45.05,20 67.5,9.793 22.45,-10.281 36.85,-32.671 36.85,-57.351 V 63.0117 c 0,-34.8203 -28.18,-63.0195125 -63.01,-63.0195125" /><path
         id="path80"
         style="fill:#100f0d;fill-opacity:1;fill-rule:nonzero;stroke:none"
         d="m 3271.34,-0.0078125 h -285.51 c -34.82,0 -63.01,28.1992125 -63.01,63.0195125 0,34.8281 28.19,63.0083 63.01,63.0083 h 285.51 c 34.83,0 63.01,-28.1802 63.01,-63.0083 0,-34.8203 -28.18,-63.0195125 -63.01,-63.0195125" /><path
         id="path82"
         style="fill:#100f0d;fill-opacity:1;fill-rule:nonzero;stroke:none"
         d="m 3629.52,435.832 c -3.57,0 -6.53,-2.961 -6.53,-6.594 V 132.602 c 0,-3.622 2.96,-6.582 6.53,-6.582 h 191.66 c 3.63,0 6.59,2.96 6.59,6.582 v 296.636 c 0,3.582 -3.01,6.594 -6.59,6.594 z M 3821.18,-0.0078125 h -191.66 c -73.1,0 -132.54,59.5078125 -132.54,132.6098125 v 296.636 c 0,73.114 59.44,132.614 132.54,132.614 h 191.66 c 73.11,0 132.61,-59.5 132.61,-132.614 V 132.602 c 0,-73.102 -59.5,-132.6098125 -132.61,-132.6098125" /><path
         id="path84"
         style="fill:#100f0d;fill-opacity:1;fill-rule:nonzero;stroke:none"
         d="m 3128.58,2823.88 c -489.3,0 -887.34,-398.05 -887.34,-887.34 0,-489.31 398.04,-887.36 887.34,-887.36 489.31,0 887.36,398.05 887.36,887.36 0,489.29 -398.05,887.34 -887.36,887.34 z m 0,-1900.708 c -558.77,0 -1013.36,454.588 -1013.36,1013.368 0,558.76 454.59,1013.36 1013.36,1013.36 558.77,0 1013.37,-454.6 1013.37,-1013.36 0,-558.78 -454.6,-1013.368 -1013.37,-1013.368" /><path
         id="path86"
         style="fill:#100f0d;fill-opacity:1;fill-rule:nonzero;stroke:none"
         d="m 3745.93,2862.4 c -11.44,0 -22.95,3.08 -33.35,9.59 -174.75,109.35 -376.7,167.19 -584,167.19 -34.82,0 -63,28.18 -63,63 0,34.84 28.18,63.02 63,63.02 230.99,0 456.08,-64.43 650.82,-186.38 29.55,-18.46 38.46,-57.35 20,-86.83 -11.93,-19.13 -32.48,-29.59 -53.47,-29.59" /><path
         id="path88"
         style="fill:#100f0d;fill-opacity:1;fill-rule:nonzero;stroke:none"
         d="m 4276.52,2076.64 c -30.03,0 -56.61,21.54 -62.02,52.11 -27.62,157.35 -87.93,303.91 -179.3,435.59 -19.89,28.61 -12.74,67.87 15.82,87.68 28.6,20 67.86,12.74 87.67,-15.82 101.9,-146.8 169.15,-310.17 199.97,-485.66 5.98,-34.27 -16.91,-66.94 -51.18,-72.98 -3.7,-0.61 -7.32,-0.92 -10.96,-0.92" /><path
         id="path90"
         style="fill:#100f0d;fill-opacity:1;fill-rule:nonzero;stroke:none"
         d="m 4230.13,1491.28 c -6.83,0 -13.78,1.12 -20.68,3.51 -32.86,11.39 -50.27,47.26 -38.82,80.17 19.07,54.95 33.84,112.01 44,169.47 5.96,34.27 38.63,56.85 72.9,51.2 34.28,-6.11 57.24,-38.77 51.13,-72.98 -11.25,-64.11 -27.74,-127.69 -49.03,-189.03 -8.98,-26.03 -33.42,-42.34 -59.5,-42.34" /><path
         id="path92"
         style="fill:#100f0d;fill-opacity:1;fill-rule:nonzero;stroke:none"
         d="m 3218.6,711.309 c -32.6,0 -60.23,25.171 -62.76,58.203 -2.65,34.707 23.33,64.976 58.03,67.629 176.4,13.48 348.88,70.148 498.78,163.919 29.53,18.59 68.42,9.54 86.82,-19.99 18.46,-29.48 9.53,-68.371 -20,-86.832 -167.13,-104.539 -359.41,-167.726 -556,-182.75 -1.67,-0.117 -3.27,-0.179 -4.87,-0.179" /><path
         id="path94"
         style="fill:#100f0d;fill-opacity:1;fill-rule:nonzero;stroke:none"
         d="m 2748.75,771.121 c -6.84,0 -13.72,1.109 -20.56,3.438 -168.89,58.211 -326.3,155.062 -455.15,280.101 -24.98,24.24 -25.59,64.12 -1.35,89.1 24.25,24.97 64.12,25.6 89.1,1.35 115.68,-112.24 256.9,-199.18 408.51,-251.419 32.86,-11.32 50.34,-47.191 39.02,-80.121 -9,-26.09 -33.42,-42.449 -59.57,-42.449" /><path
         id="path96"
         style="fill:#100f0d;fill-opacity:1;fill-rule:nonzero;stroke:none"
         d="m 2041.38,1452.28 c -25.23,0 -49.1,15.25 -58.76,40.23 -54.89,141.58 -82.7,290.99 -82.7,444.03 0,28.54 0.99,56.85 2.89,84.85 2.46,34.7 32.55,60.05 67.25,58.51 34.71,-2.46 60.92,-32.55 58.51,-67.26 -1.77,-25.16 -2.63,-50.51 -2.63,-76.1 0,-137.42 24.98,-271.49 74.21,-398.48 12.55,-32.43 -3.58,-68.93 -36,-81.53 -7.45,-2.9 -15.2,-4.25 -22.77,-4.25" /><path
         id="path98"
         style="fill:#100f0d;fill-opacity:1;fill-rule:nonzero;stroke:none"
         d="m 2118.6,2455.92 c -10.7,0 -21.53,2.72 -31.45,8.43 -30.15,17.42 -40.48,55.99 -23.07,86.09 37.17,64.23 80.3,125.39 128.3,181.82 22.65,26.7 62.45,29.73 88.79,7.2 26.52,-22.52 29.72,-62.33 7.19,-88.78 -43.07,-50.71 -81.83,-105.6 -115.12,-163.26 -11.69,-20.23 -32.86,-31.5 -54.64,-31.5" /><path
         id="path100"
         style="fill:#100f0d;fill-opacity:1;fill-rule:nonzero;stroke:none"
         d="m 2615.78,2920.62 c -23.32,0 -45.66,12.92 -56.61,35.25 -15.32,31.25 -2.47,68.98 28.79,84.3 169.1,82.94 350.99,125.03 540.62,125.03 34.83,0 63.01,-28.18 63.01,-63.02 0,-34.82 -28.18,-63 -63.01,-63 -170.25,0 -333.44,-37.71 -485.12,-112.11 -8.91,-4.37 -18.4,-6.45 -27.68,-6.45" /><path
         id="path102"
         style="fill:#100f0d;fill-opacity:1;fill-rule:nonzero;stroke:none"
         d="m 2714.84,1571.96 c -34.83,0 -63,28.18 -63,63 v 70.34 c 0,34.82 28.17,63 63,63 34.83,0 63.01,-28.18 63.01,-63 v -70.34 c 0,-34.82 -28.18,-63 -63.01,-63" /><path
         id="path104"
         style="fill:#100f0d;fill-opacity:1;fill-rule:nonzero;stroke:none"
         d="m 3542.31,1571.96 c -34.82,0 -62.99,28.18 -62.99,63 v 70.34 c 0,34.82 28.17,63 62.99,63 34.84,0 63.02,-28.18 63.02,-63 v -70.34 c 0,-34.82 -28.18,-63 -63.02,-63" /><path
         id="path106"
         style="fill:#100f0d;fill-opacity:1;fill-rule:nonzero;stroke:none"
         d="m 3385.72,2076.64 c -32.85,0 -59.62,-26.77 -59.62,-59.63 0,-32.85 26.77,-59.62 59.62,-59.62 32.86,0 59.63,26.77 59.63,59.62 0,32.86 -26.77,59.63 -59.63,59.63 z m 0,-245.26 c -102.38,0 -185.63,83.25 -185.63,185.63 0,102.39 83.25,185.64 185.63,185.64 102.4,0 185.65,-83.25 185.65,-185.64 0,-102.38 -83.25,-185.63 -185.65,-185.63" /><path
         id="path108"
         style="fill:#100f0d;fill-opacity:1;fill-rule:nonzero;stroke:none"
         d="m 3218.72,1511.54 c -23.08,0 -45.22,12.67 -56.3,34.63 l -33.84,67.07 -33.84,-67.07 c -15.69,-31.01 -53.53,-43.56 -84.6,-27.87 -31.08,15.63 -43.57,53.54 -27.88,84.61 l 51.07,101.28 c 19.26,38.27 55.75,62.02 95.25,62.02 39.44,0 75.93,-23.75 95.26,-61.96 l 51.06,-101.34 c 15.7,-31.07 3.21,-68.98 -27.86,-84.61 -9.12,-4.62 -18.78,-6.76 -28.32,-6.76" /><path
         id="path110"
         style="fill:#100f0d;fill-opacity:1;fill-rule:nonzero;stroke:none"
         d="m 3209.81,1424.95 h 12.18 c 27.87,0 52.42,-18.33 60.42,-45.04 2.34,-7.99 9.73,-15.99 20.8,-15.99 11.08,0 18.46,8 20.79,15.99 8,26.71 32.55,45.04 60.43,45.04 h 54.83 l 41.1,221.46 c 5.54,29.83 31.62,51.5 61.95,51.5 h 78.71 c 19.62,0 35.57,16.01 35.57,35.63 v 247.55 c 0,285.62 -232.22,522.46 -517.73,527.93 -3.26,0.06 -6.57,0.12 -9.9,0.12 -135.87,0 -265.02,-53.4 -364.52,-151.05 -104.11,-102.14 -163.86,-243.79 -163.86,-388.63 v -235.92 c 0,-19.62 15.93,-35.63 35.56,-35.63 h 78.77 c 30.33,0 56.42,-21.67 61.96,-51.5 l 41.05,-221.46 h 54.82 c 27.87,0 52.42,-18.33 60.41,-45.04 2.35,-7.99 9.73,-15.99 20.81,-15.99 11.07,0 18.46,8 20.8,15.99 7.99,26.71 32.54,45.04 60.42,45.04 h 12.18 c 27.87,0 52.43,-18.33 60.42,-45.04 2.35,-7.99 9.73,-15.99 20.8,-15.99 11.08,0 18.46,8 20.8,15.99 8,26.71 32.55,45.04 60.43,45.04 z m 93.4,-187.06 c -32.42,0 -62.69,10.35 -87.31,28.43 -49.23,-36.18 -125.41,-36.18 -174.62,0 -24.62,-18.08 -54.89,-28.43 -87.32,-28.43 -48.68,0 -92.42,23.27 -119.57,61.05 h -68.84 c -30.34,0 -56.43,21.66 -61.97,51.5 l -41.04,221.45 h -26.4 c -89.09,0 -161.57,72.48 -161.57,161.65 v 235.92 c 0,178.43 73.46,352.88 201.64,478.58 126.26,123.81 290.42,189.21 465.11,187 353.62,-6.77 641.29,-300.15 641.29,-653.95 v -247.55 c 0,-89.17 -72.49,-161.65 -161.59,-161.65 h -26.33 l -41.11,-221.45 c -5.54,-29.84 -31.62,-51.5 -61.95,-51.5 h -68.86 c -27.14,-37.78 -70.89,-61.05 -119.56,-61.05" /><path
         id="path112"
         style="fill:#100f0d;fill-opacity:1;fill-rule:nonzero;stroke:none"
         d="m 2871.45,2076.64 c -32.87,0 -59.63,-26.77 -59.63,-59.63 0,-32.85 26.76,-59.62 59.63,-59.62 32.85,0 59.62,26.77 59.62,59.62 0,32.86 -26.77,59.63 -59.62,59.63 z m 0,-245.26 c -102.39,0 -185.64,83.25 -185.64,185.63 0,102.39 83.25,185.64 185.64,185.64 102.38,0 185.63,-83.25 185.63,-185.64 0,-102.38 -83.25,-185.63 -185.63,-185.63" /></g></g></svg>